PathFileType	4	(X/Y/Z)	C:\Users\WrightLab\Desktop\Jo\P1_boxCal18.trc
DataRate	CameraRate	NumFrames	NumMarkers	Units	OrigDataRate	OrigDataStartFrame	OrigNumFrames
100.00	100.00	       15	19	mm	100.00	350	       559
Frame#	Time	Headset_Front			Headset_Back			Headset_Left			Headset_Right			Left_Shoulder			Right_Shoulder			Sternum			C7			Left Elbow			Right Elbow			Left Wrist			Right Wrist			Left ASIS			Right ASIS			S2			Left Knee			Right Knee			Left Ankle			Right Ankle			
		X1	Y1	Z1	X2	Y2	Z2	X3	Y3	Z3	X4	Y4	Z4	X5	Y5	Z5	X6	Y6	Z6	X7	Y7	Z7	X8	Y8	Z8	X9	Y9	Z9	X10	Y10	Z10	X11	Y11	Z11	X12	Y12	Z12	X13	Y13	Z13	X14	Y14	Z14	X15	Y15	Z15	X16	Y16	Z16	X17	Y17	Z17	X18	Y18	Z18	X19	Y19	Z19	

350	3.490	-34.94104	1381.71289	1591.13574	69.60166	1540.62939	1345.27783	128.15860	1466.01184	1489.38525	-92.01164	1420.21228	1455.68018	260.80142	1299.73425	1401.28406	-112.74084	1265.08252	1350.83142	49.96382	1178.27161	1507.81909	100.46847	1292.40466	1267.96667	404.60983	1006.93500	1408.05896	-158.67467	997.97595	1253.93591	486.29419	871.12549	1542.31897	-244.32870	775.38715	1260.28198	196.76512	906.47626	1524.96082	-4.87003	890.27228	1523.49426	100.87823	909.27637	1210.06909	290.07895	478.28568	1297.90625	-32.76815	484.83865	1519.56934	294.54514	158.80962	1110.15942	-2.45282	130.26984	1610.56653	
351	3.500	-39.90860	1381.57263	1598.64331	68.15416	1538.94434	1354.44531	124.08124	1465.77563	1499.33374	-95.75758	1419.74646	1464.59607	257.69202	1299.65869	1411.80042	-115.12807	1263.38110	1358.68152	45.42165	1178.62378	1518.39270	97.69044	1291.35193	1277.63037	400.08124	1005.06940	1417.68774	-159.48810	996.13861	1260.76416	481.37769	869.41394	1552.66052	-245.38573	773.88428	1266.14783	193.95151	906.58429	1537.33545	-7.68432	889.61694	1531.55273	99.30406	907.92664	1220.39490	290.04568	478.73645	1307.56250	-34.96401	482.15768	1529.09827	296.04602	162.88087	1114.15503	-4.58586	128.47852	1613.58203	
352	3.510	-44.16039	1381.94299	1607.99988				120.25104	1466.12146	1508.69714	-102.23450	1421.51331	1474.41711	253.85039	1299.31213	1422.30127	-119.23539	1262.61438	1366.44446	42.15693	1178.00842	1526.71436	94.66065	1290.31152	1286.85779	395.30127	1004.03326	1426.87927	-161.67622	995.19458	1268.08289	476.10818	867.41205	1562.53748	-246.19022	772.74225	1271.63391	190.73064	906.94586	1548.23584	-10.59617	889.13196	1541.98364	97.40331	906.75769	1232.47522	290.27335	478.99982	1319.67505	-37.45419	480.01486	1538.96375	297.78033	167.54366	1117.79260	-6.73329	126.42508	1619.05188	
353	3.520	-48.70575	1382.69226	1616.31958				116.52531	1465.59375	1517.28748				250.14449	1299.06433	1431.81641	-122.50482	1261.52881	1374.55432	37.00437	1179.42114	1537.75940	91.20124	1289.49927	1296.64539	390.00967	1003.23663	1436.13513	-162.88206	993.65741	1275.92200	470.63574	865.69684	1571.08069	-247.13177	771.51868	1278.09485	187.74200	907.31415	1560.60327	-13.61863	888.62897	1551.95691	96.77004	906.53516	1244.16846	289.81860	478.89053	1332.65381	-40.16757	478.47397	1545.31689	299.88925	173.31712	1123.50842	-8.26924	124.12539	1625.25391	
354	3.530	-54.32914	1384.08398	1624.57251	-109.92860	1422.13184	1490.21729	112.09164	1466.25171	1526.41467				246.42700	1299.32434	1442.58911	-126.19522	1260.90125	1382.98462	32.43809	1179.58337	1547.34790	87.63812	1289.21387	1305.76196	384.99734	1002.02380	1445.08057	-163.56715	992.61395	1284.16089	463.87903	863.70215	1580.11206	-248.12981	770.27386	1284.78979	183.72166	908.03510	1572.11096	-17.10225	888.73206	1563.54089	93.57742	906.34607	1254.54382	289.89551	478.84662	1346.42944	-42.99382	476.74643	1554.40845	302.38873	178.85722	1129.74512	-9.48813	121.40694	1631.37402	
355	3.540	-58.54314	1382.94470	1628.47156	-114.17316	1422.70190	1498.85449	107.46025	1467.38684	1536.47668				242.87407	1299.96130	1452.16125	-129.58324	1260.61548	1391.34399	28.30759	1179.99695	1555.42688	84.63404	1289.04712	1315.97913	379.33310	1001.46863	1454.50305	-165.75079	992.05957	1292.61975	457.39609	862.27631	1588.19714	-249.28366	769.70972	1291.02795	179.92265	909.81012	1584.66138	-20.38235	889.80975	1573.62402	91.49860	906.51776	1266.07593	289.90811	478.85788	1362.12134	-45.79221	476.39175	1561.42029	304.63367	185.66956	1137.37366	-11.70481	118.44593	1637.56885	
356	3.550	-63.45572	1384.20276	1637.34338	-118.34275	1423.98608	1506.91284	103.14188	1468.13403	1545.31812				239.32346	1300.89050	1462.06946	-133.25385	1260.77478	1399.83472	23.14248	1181.85815	1565.85205	81.75905	1290.28711	1324.89429	373.29059	1000.73969	1463.55420	-167.05173	991.38361	1301.30579	451.28067	860.36584	1596.28210	-250.32669	769.23682	1298.46436	174.75031	911.07690	1595.75183	-24.36193	891.04736	1584.78503	89.29265	906.74805	1276.49109	290.11752	479.35461	1378.76941	-49.35386	476.10205	1568.73657	307.41351	191.69904	1147.92102	-13.41578	116.15065	1640.88684	
357	3.560	-67.92970	1385.21057	1645.07092	-122.74359	1425.77332	1514.96631	98.80587	1469.38293	1554.48999				235.59970	1302.24646	1471.58997	-136.85448	1261.32397	1408.49963	18.03638	1183.59680	1576.43787	78.81610	1291.15918	1334.03503	367.17331	1000.20734	1472.23083	-169.14575	991.95111	1310.03687	444.74652	859.17627	1604.85754	-251.40863	769.52667	1306.38367	169.09181	913.51947	1608.30444	-29.27467	892.41980	1594.29114	87.48557	907.18732	1287.28137	290.44940	479.24786	1396.53552	-51.77251	477.49161	1575.92822	309.31052	198.53589	1158.71252	-15.03057	114.02171	1643.25024	
358	3.570	-73.08866	1387.28040	1654.20850	-127.04034	1426.47791	1523.27832	94.00842	1470.60681	1563.06812				231.88741	1303.63306	1482.65686	-139.91019	1262.27271	1416.87012	14.37373	1185.52124	1584.87634	75.21014	1292.55823	1343.82764	360.55154	1000.52826	1481.33093	-171.36569	992.41473	1319.53088	437.59836	857.86145	1611.25464	-253.05655	770.28754	1314.48218	163.98730	915.32275	1619.34033	-34.42868	894.00543	1603.14709	85.28436	908.61670	1297.19177	291.07379	479.83176	1415.53760	-56.47575	478.39520	1582.86816	311.19409	204.30978	1172.09363	-15.50220	113.11364	1645.03870	
359	3.580	-78.05282	1388.77979	1663.11560	-131.06934	1428.35620	1530.39221	89.18945	1471.82727	1571.74902				228.15092	1305.61182	1492.31982	-143.00642	1263.69019	1424.34290	10.24716	1187.89258	1594.21472	72.56419	1294.15881	1352.96460	353.71652	1000.77881	1490.25171	-174.16843	993.69476	1329.18970	430.13943	856.73041	1619.22949	-254.48367	771.65601	1323.32336	158.38225	917.79956	1629.73071	-39.05833	897.39325	1613.66492	82.35397	909.82452	1304.72876	292.82941	480.26294	1436.63159	-59.36525	481.22690	1588.65259	312.47897	210.74908	1186.72864	-15.35598	112.69994	1645.65820	
360	3.590	-82.59132	1390.34509	1670.28320	-135.17093	1428.58423	1537.93420	85.42690	1473.91528	1581.61426				224.96236	1307.47766	1502.60669	-145.84352	1265.22961	1432.61487	5.96197	1190.65979	1603.93945	70.12655	1295.11975	1361.88782	347.40475	1001.15057	1498.87268	-176.35934	994.70502	1338.17847	423.02975	855.23529	1626.08716	-256.10522	773.21295	1332.64319	152.14299	920.56067	1640.73291	-44.70196	899.33746	1622.06262	81.65843	911.56891	1314.88721	294.42377	480.27994	1458.34082	-63.87881	483.67343	1595.23950	313.68790	217.67899	1201.09302	-15.36546	113.18990	1645.49231	
361	3.600	-87.82731	1391.13818	1677.75427	-139.55705	1430.32104	1546.22729	80.93460	1476.12366	1590.58972				221.81554	1309.04333	1512.33813	-148.88988	1267.12842	1440.98511	2.52679	1192.26062	1611.85535	68.03123	1297.20691	1371.24976	340.27933	1001.22113	1507.26038	-178.81844	996.66174	1347.98218	415.87347	853.69830	1633.59924	-258.57703	774.72540	1342.67639	146.90834	922.58704	1650.10730	-49.56288	900.05377	1626.08191	80.78308	912.84149	1324.03809	295.88235	481.01859	1480.84106	-68.00692	484.72757	1599.88403	314.77399	224.16241	1218.11511	-15.43570	113.62152	1645.36218	
362	3.610	-93.32432	1392.90869	1685.87634	-142.95749	1430.75256	1552.24768	76.16719	1477.81812	1599.81836				218.67578	1311.04187	1522.18494	-151.33340	1269.24597	1449.26221	-1.67405	1194.41870	1620.81445	65.86710	1298.66687	1380.45508	334.09988	1002.09766	1515.93542	-181.35895	998.01489	1357.74316	408.53552	852.42352	1639.87830	-261.15826	776.61163	1352.84692	140.79103	924.82520	1660.60754	-55.06875	902.55627	1634.06641	79.08912	914.54211	1332.95959	296.26538	482.24774	1502.05798	-73.64848	485.79965	1605.40576	316.66849	231.87962	1236.64978	-15.52274	114.65845	1645.78479	
363	3.620	-97.59346	1393.69434	1691.38379	-147.44939	1432.26343	1560.45825	72.29816	1479.77332	1608.93225				215.84435	1312.71863	1531.89075	-153.52831	1271.19287	1457.37671	-5.06814	1196.36694	1628.06006	63.85731	1300.59814	1388.49573	328.29770	1002.50507	1524.92493	-184.04507	999.62305	1367.60254	401.63989	850.57745	1649.04211	-263.87247	778.24060	1363.23767	134.85310	926.68378	1670.41699	-60.39357	904.49091	1640.46838	78.69540	915.72632	1342.92151	296.87097	483.62729	1525.14197	-77.71332	486.51697	1610.29736	317.84256	239.19928	1256.19861	-15.71800	115.23199	1645.73975	
364	3.630	-102.34794	1394.38489	1699.07788	-150.63170	1433.16162	1566.65735	67.62679	1481.26868	1617.11438				213.24767	1314.19727	1541.56824	-155.64655	1273.10510	1465.84387	-8.59251	1198.11023	1636.10706	62.68344	1302.74170	1397.44006	322.69995	1003.09845	1532.90173	-187.96024	1002.01221	1376.57520	394.91299	849.79303	1656.48059	-267.03943	780.48358	1374.99744	129.19382	928.63031	1679.83154	-66.41621	906.89417	1649.50940	76.60894	917.34119	1350.49377	296.63019	485.60876	1546.21399	-81.37095	485.99042	1613.84448	318.21823	246.13452	1277.65625	-16.19352	115.33272	1646.00220	
